Coordinates
version=1
nRows=43
nColumns=12
inDegrees=yes

Units are S.I. units (second, meters, Newtons, ...)
Angles are in degrees

endheader
time	SC_y	SC_z	SC_x	AC_y	AC_z	AC_x	GH_y	GH_z	GH_yy	EL_x	PS_y
       0.0              -57.58          6.072          67.54          57.39          1.644         -8.654       -0.05608          47.31          82.35           9.44          70.94
   0.04577              -57.58          6.071          67.54          57.38          1.642         -8.655       -0.03212          47.32          82.36          9.454          70.94
   0.09154              -57.58          6.071          67.53          57.38          1.639         -8.656      -0.006671          47.32          82.37           9.47          70.93
    0.1373              -57.58          6.071          67.52          57.37          1.636         -8.656        0.02039          47.33          82.39          9.487          70.93
    0.1831              -57.57           6.07          67.51          57.37          1.633         -8.657        0.04921          47.34          82.41          9.504          70.93
    0.2289              -57.57           6.07          67.51          57.37          1.629         -8.658        0.07994          47.34          82.43          9.523          70.92
    0.2746              -57.57           6.07           67.5          57.36          1.626         -8.659         0.1127          47.35          82.44          9.543          70.92
    0.3204              -57.57          6.069          67.49          57.36          1.622         -8.659         0.1478          47.36          82.47          9.565          70.92
    0.3662              -57.56          6.069          67.48          57.35          1.618          -8.66         0.1854          47.37          82.49          9.588          70.91
    0.4119              -57.56          6.068          67.47          57.35          1.613         -8.661         0.2257          47.38          82.51          9.613          70.91
    0.4577              -57.55          6.068          67.46          57.34          1.609         -8.662          0.269          47.39          82.54          9.639          70.91
    0.5035              -57.55          6.067          67.44          57.33          1.603         -8.664         0.3155           47.4          82.56          9.668           70.9
    0.5493              -57.55          6.066          67.43          57.33          1.598         -8.665         0.3657          47.42          82.59          9.699           70.9
     0.595              -57.54          6.066          67.42          57.32          1.592         -8.666           0.42          47.43          82.63          9.732          70.89
    0.6408              -57.53          6.065           67.4          57.31          1.586         -8.667         0.4787          47.44          82.66          9.768          70.88
    0.6866              -57.53          6.064          67.38           57.3          1.579         -8.669         0.5423          47.46           82.7          9.808          70.88
    0.7323              -57.52          6.063          67.37          57.29          1.571         -8.671         0.6115          47.48          82.74           9.85          70.87
    0.7781              -57.52          6.062          67.35          57.28          1.563         -8.673         0.6869           47.5          82.78          9.896          70.86
    0.8239              -57.51          6.061          67.32          57.27          1.554         -8.675         0.7692          47.52          82.83          9.947          70.85
    0.8696               -57.5           6.06           67.3          57.25          1.544         -8.677         0.8593          47.54          82.88           10.0          70.85
    0.9154              -57.49          6.059          67.27          57.24          1.533         -8.679         0.9582          47.56          82.94          10.06          70.84
    0.9612              -57.48          6.057          67.25          57.23          1.521         -8.682          1.067          47.59          83.01          10.13          70.82
     1.007              -57.47          6.056          67.21          57.21          1.508         -8.685          1.187          47.62          83.08           10.2          70.81
     1.053              -57.46          6.054          67.18          57.19          1.493         -8.688          1.321          47.65          83.16          10.29           70.8
     1.099              -57.44          6.052          67.14          57.17          1.477         -8.692          1.469          47.69          83.24          10.38          70.78
     1.144              -57.43           6.05           67.1          57.14          1.459         -8.696          1.634          47.73          83.34          10.48          70.77
      1.19              -57.41          6.048          67.05          57.12          1.439           -8.7          1.819          47.78          83.45          10.59          70.75
     1.236              -57.39          6.045          66.99          57.09          1.416         -8.705          2.027          47.83          83.57          10.72          70.73
     1.282              -57.37          6.042          66.93          57.06           1.39         -8.711          2.263          47.89          83.71          10.87           70.7
     1.327              -57.35          6.039          66.86          57.02          1.361         -8.717           2.53          47.96          83.87          11.03          70.68
     1.373              -57.32          6.035          66.78          56.97          1.327         -8.725          2.835          48.03          84.05          11.22          70.65
     1.419              -57.29           6.03          66.69          56.92          1.289         -8.733          3.185          48.12          84.25          11.43          70.61
     1.465              -57.25          6.025          66.58          56.87          1.244         -8.743          3.589          48.22          84.49          11.68          70.57
      1.51              -57.21          6.019          66.46           56.8          1.193         -8.755          4.059          48.34          84.77          11.97          70.52
     1.556              -57.16          6.012          66.31          56.72          1.133         -8.768          4.608          48.48          85.09          12.31          70.47
     1.602               -57.1          6.004          66.14          56.63          1.062         -8.784          5.256          48.64          85.47          12.71           70.4
     1.648              -57.03          5.994          65.94          56.52         0.9773         -8.803          6.026          48.83          85.93          13.18          70.32
     1.694              -56.94          5.982          65.69          56.39         0.8761         -8.825          6.948          49.06          86.47          13.75          70.23
     1.739              -56.84          5.968           65.4          56.23         0.7537         -8.852          8.065          49.34          87.13          14.43          70.12
     1.785              -56.71          5.951          65.04          56.03         0.6042         -8.885          9.428          49.69          87.93          15.27          69.98
     1.831              -56.56          5.929          64.59          55.79         0.4196         -8.926          11.11          50.11          88.92          16.31          69.81
     1.877              -56.37          5.903          64.04           55.5         0.1895         -8.978          13.21          50.63          90.16           17.6           69.6
     1.922              -56.12          5.869          63.34          55.12        -0.1004         -9.042          15.85          51.29          91.72          19.22          69.33
